<svg width="1024" height="1024" viewBox="0 0 512 512" fill="none" xmlns="http://www.w3.org/2000/svg">
  <rect width="512" height="512" fill="#10162A"/>
  <g transform="translate(256 256) scale(0.95) translate(-256 -256)">
    <path d="M296.172 343.732C284.04 343.732 274.205 333.898 274.205 321.766C274.205 309.634 284.04 299.799 296.172 299.799H369.393C381.525 299.799 391.36 309.634 391.36 321.766C391.36 333.898 381.525 343.732 369.393 343.732H296.172ZM182.525 281.647C196.753 267.419 196.724 244.342 182.46 230.15L157.596 205.409C143.753 191.635 153.508 168 173.037 168C178.836 168 184.397 170.3 188.501 174.396L254.728 240.49C263.222 249.13 263.222 263.188 254.728 271.536L188.961 337.303C184.844 341.419 179.26 343.732 173.438 343.732C153.88 343.732 144.086 320.086 157.915 306.256L182.525 281.647Z" fill="#3A53D8"/>
  </g>
</svg>
